<svg version="1.1" id="Layer_1" xmlns="http://www.w3.org/2000/svg" xmlns:xlink="http://www.w3.org/1999/xlink" x="0px" y="0px"
	 width="100%" viewBox="0 0 1080 1080" enable-background="new 0 0 1080 1080" xml:space="preserve">
<path fill="#004AAD" opacity="1.000000" stroke="none" 
	d="
M574.000000,1081.000000 
	C382.688690,1081.000000 191.877380,1081.000000 1.033032,1081.000000 
	C1.033032,721.063538 1.033032,361.127136 1.033032,1.095345 
	C360.894867,1.095345 720.789795,1.095345 1080.842285,1.095345 
	C1080.842285,360.999939 1080.842285,720.999939 1080.842285,1081.000000 
	C912.126648,1081.000000 743.313293,1081.000000 574.000000,1081.000000 
M778.748108,544.816467 
	C780.088013,546.920654 781.235474,549.182495 782.804993,551.098694 
	C787.047974,556.278870 788.061951,562.117371 788.003662,568.714783 
	C787.812439,590.373718 788.116699,612.037048 788.228333,633.698730 
	C788.237549,635.486145 788.229553,637.273682 788.229553,639.363342 
	C817.139709,639.363342 845.503723,639.363342 874.270325,639.363342 
	C874.270325,637.252625 874.268677,635.442505 874.270569,633.632385 
	C874.294006,610.470764 874.201050,587.307800 874.469055,564.148987 
	C874.508789,560.713196 875.530029,556.855225 877.316711,553.939819 
	C896.007080,523.441467 914.950256,493.098022 933.811279,462.704132 
	C935.935486,459.281097 937.985168,455.811737 939.939880,452.578125 
	C910.101562,452.578125 880.636841,452.532196 851.173462,452.710541 
	C849.663147,452.719727 847.632874,454.322083 846.748169,455.744568 
	C841.671814,463.906342 836.868591,472.237946 831.764404,480.863831 
	C826.008484,472.403503 820.391968,464.564819 815.269470,456.415588 
	C813.197632,453.119568 810.880005,452.207764 807.161011,452.209869 
	C719.680115,452.258881 632.199097,452.185425 544.718140,452.134644 
	C542.932739,452.133606 541.147278,452.134521 538.841614,452.134521 
	C538.841614,456.190826 538.841614,459.752533 538.841614,463.892578 
	C537.001953,463.181000 535.813965,462.737762 534.638184,462.264252 
	C508.945374,451.917084 482.649597,445.541168 454.802185,451.239685 
	C436.801727,454.923157 421.261200,463.236755 410.145020,478.243652 
	C394.327271,499.597565 395.560120,522.949036 403.017914,546.839111 
	C411.758942,556.634888 407.238159,566.284302 402.703857,575.937988 
	C402.279907,576.840637 401.902771,577.766174 401.527130,578.690552 
	C396.158997,591.898865 390.794830,605.108704 385.454041,618.258362 
	C386.153870,618.851685 386.480774,619.251099 386.901672,619.468262 
	C412.629852,632.740479 439.601105,641.661743 468.816223,642.394165 
	C495.618591,643.066040 519.040405,635.354065 536.898865,614.262634 
	C537.154724,613.960510 537.682678,613.888733 538.651794,613.455383 
	C538.651794,622.416504 538.651794,630.987732 538.651794,639.285522 
	C594.998535,639.285522 650.843933,639.285522 707.136353,639.285522 
	C707.136353,621.847351 707.136353,605.103333 707.136353,587.738464 
	C722.642578,587.738464 737.702576,587.738464 752.997070,587.738464 
	C752.997070,566.641479 752.997070,546.175293 752.997070,525.129089 
	C755.534729,525.129089 757.858765,525.369263 760.114014,525.077454 
	C764.391235,524.523987 767.182861,525.821777 769.293030,529.868164 
	C771.898376,534.863892 775.294800,539.447083 778.748108,544.816467 
M364.499237,643.871277 
	C370.874969,643.871277 377.250671,643.871277 384.440033,643.871277 
	C343.917816,574.551941 303.908661,506.110260 263.576996,437.116913 
	C223.344101,506.154236 183.460678,574.591919 143.086746,643.871277 
	C217.334412,643.871277 290.417023,643.871277 364.499237,643.871277 
z"/>
<path fill="#FAFCFD" opacity="1.000000" stroke="none" 
	d="
M778.548767,544.512451 
	C775.294800,539.447083 771.898376,534.863892 769.293030,529.868164 
	C767.182861,525.821777 764.391235,524.523987 760.114014,525.077454 
	C757.858765,525.369263 755.534729,525.129089 752.997070,525.129089 
	C752.997070,546.175293 752.997070,566.641479 752.997070,587.738464 
	C737.702576,587.738464 722.642578,587.738464 707.136353,587.738464 
	C707.136353,605.103333 707.136353,621.847351 707.136353,639.285522 
	C650.843933,639.285522 594.998535,639.285522 538.651794,639.285522 
	C538.651794,630.987732 538.651794,622.416504 538.651794,613.455383 
	C537.682678,613.888733 537.154724,613.960510 536.898865,614.262634 
	C519.040405,635.354065 495.618591,643.066040 468.816223,642.394165 
	C439.601105,641.661743 412.629852,632.740479 386.901672,619.468262 
	C386.480774,619.251099 386.153870,618.851685 385.454041,618.258362 
	C390.794830,605.108704 396.158997,591.898865 401.527130,578.690552 
	C401.902771,577.766174 402.279907,576.840637 402.703857,575.937988 
	C407.238159,566.284302 411.758942,556.634888 403.017914,546.839111 
	C395.560120,522.949036 394.327271,499.597565 410.145020,478.243652 
	C421.261200,463.236755 436.801727,454.923157 454.802185,451.239685 
	C482.649597,445.541168 508.945374,451.917084 534.638184,462.264252 
	C535.813965,462.737762 537.001953,463.181000 538.841614,463.892578 
	C538.841614,459.752533 538.841614,456.190826 538.841614,452.134521 
	C541.147278,452.134521 542.932739,452.133606 544.718140,452.134644 
	C632.199097,452.185425 719.680115,452.258881 807.161011,452.209869 
	C810.880005,452.207764 813.197632,453.119568 815.269470,456.415588 
	C820.391968,464.564819 826.008484,472.403503 831.764404,480.863831 
	C836.868591,472.237946 841.671814,463.906342 846.748169,455.744568 
	C847.632874,454.322083 849.663147,452.719727 851.173462,452.710541 
	C880.636841,452.532196 910.101562,452.578125 939.939880,452.578125 
	C937.985168,455.811737 935.935486,459.281097 933.811279,462.704132 
	C914.950256,493.098022 896.007080,523.441467 877.316711,553.939819 
	C875.530029,556.855225 874.508789,560.713196 874.469055,564.148987 
	C874.201050,587.307800 874.294006,610.470764 874.270569,633.632385 
	C874.268677,635.442505 874.270325,637.252625 874.270325,639.363342 
	C845.503723,639.363342 817.139709,639.363342 788.229553,639.363342 
	C788.229553,637.273682 788.237549,635.486145 788.228333,633.698730 
	C788.116699,612.037048 787.812439,590.373718 788.003662,568.714783 
	C788.061951,562.117371 787.047974,556.278870 782.804993,551.098694 
	C781.235474,549.182495 780.088013,546.920654 778.548767,544.512451 
M736.191101,478.275208 
	C735.801270,477.830200 735.411438,477.385193 734.913147,476.258392 
	C732.004639,468.785431 726.804504,466.747955 718.706970,466.945648 
	C692.733032,467.579773 666.733643,467.172882 640.744080,467.167725 
	C639.000549,467.167389 637.256958,467.167725 635.617371,467.167725 
	C635.617371,520.206909 635.617371,572.421265 635.617371,624.711243 
	C638.322144,624.711243 640.641235,624.711243 643.856262,624.897278 
	C646.607056,624.947327 649.357910,624.997437 652.743042,625.154968 
	C653.166382,625.101440 653.589661,625.047852 654.860657,624.858459 
	C656.504272,624.836975 658.155273,624.888428 659.784119,624.721741 
	C660.053467,624.694214 660.225220,623.712402 661.139221,623.134155 
	C661.365479,623.079651 661.591797,623.025085 661.638184,623.842834 
	C664.070679,624.932495 666.523132,626.187561 668.967163,623.130249 
	C669.321228,623.088928 669.675354,623.047546 669.861450,623.824890 
	C672.312744,623.828369 674.764038,623.831848 677.888489,624.574707 
	C679.863342,624.684814 681.838196,624.794983 684.655640,625.080261 
	C685.508850,625.016846 686.362000,624.953491 688.031860,624.727722 
	C689.287476,624.609253 690.543091,624.490845 692.269775,624.328003 
	C692.269775,607.125671 692.269775,590.250305 692.269775,572.775574 
	C707.827209,572.775574 722.876892,572.775574 737.833374,572.775574 
	C737.833374,556.895996 737.833374,541.632080 737.833374,525.764771 
	C723.536560,525.764771 709.489807,525.764771 695.278748,525.764771 
	C695.278748,520.578369 695.278748,515.999695 695.278748,510.573608 
	C715.674377,510.573608 735.836304,510.573608 756.971130,510.573608 
	C751.416199,502.014130 746.541565,494.502930 741.684082,487.067139 
	C741.684082,487.067139 741.570312,487.007050 741.065308,486.473480 
	C739.484192,483.942413 737.903076,481.411346 736.191101,478.275208 
M483.812714,626.966553 
	C495.312561,625.187378 506.256744,622.042236 515.907959,613.960510 
	C524.747314,607.023987 531.147766,598.219238 535.530945,587.948853 
	C539.236816,579.265564 540.386169,570.244080 537.272583,561.184753 
	C531.508606,544.413818 518.668579,534.739319 502.749390,529.052185 
	C494.516144,526.110901 485.648071,524.966431 477.094025,522.897522 
	C468.941803,520.925781 464.614716,515.211243 466.228241,508.783295 
	C467.645081,503.138702 473.491638,500.333496 481.475403,502.756989 
	C492.559631,506.121674 503.380615,510.353455 514.854309,514.404663 
	C519.582886,502.143555 524.503784,489.383881 529.590759,476.193542 
	C506.049530,466.937988 482.615936,460.343506 457.678802,465.874268 
	C435.352142,470.826050 418.198364,482.574249 413.830231,506.587585 
	C412.300171,514.998840 413.321777,524.189575 414.759247,532.759155 
	C417.652100,550.005127 425.687469,557.416748 442.589233,560.959961 
	C450.359375,562.588989 458.212036,564.183350 465.674469,566.799561 
	C470.954071,568.650513 473.165863,574.576599 471.710938,579.094177 
	C470.269501,583.569763 465.750824,586.435364 460.147766,585.807800 
	C456.209717,585.366760 452.245361,584.525696 448.481537,583.288818 
	C438.942810,580.154297 429.510406,576.696228 419.819305,573.291748 
	C414.649689,585.990540 409.530029,598.566589 404.179810,611.708984 
	C410.944672,614.262451 417.204773,616.917786 423.649353,619.002991 
	C442.926636,625.240173 462.488007,629.646423 483.812714,626.966553 
M802.966736,616.426392 
	C802.966736,619.042664 802.966736,621.658997 802.966736,624.520996 
	C821.908386,624.520996 840.302612,624.520996 859.265808,624.520996 
	C859.265808,622.484314 859.263245,620.701782 859.266296,618.919250 
	C859.300232,598.934998 859.240845,578.949646 859.477295,558.967773 
	C859.510437,556.167053 860.429810,553.037354 861.894775,550.645203 
	C877.875000,524.551025 894.047729,498.574860 910.159607,472.561310 
	C911.166016,470.936371 912.102661,469.268250 913.302551,467.227966 
	C895.635254,467.227966 878.691711,467.323395 861.750977,467.148224 
	C858.324646,467.112793 856.406616,468.176514 854.704834,471.175232 
	C848.222656,482.597748 841.454651,493.858368 834.764648,505.162445 
	C834.150330,506.200531 833.330933,507.117218 832.389954,508.381622 
	C823.799500,495.704987 815.378784,483.529907 807.277588,471.145752 
	C805.281128,468.093811 803.155640,466.992371 799.594666,467.130280 
	C792.610718,467.400818 785.608765,467.205994 778.614258,467.205383 
	C768.369873,467.204529 758.125488,467.205139 747.134827,467.205139 
	C748.359497,469.302887 749.120667,470.722992 749.987854,472.075073 
	C766.507446,497.832794 783.125366,523.528320 799.453491,549.406799 
	C801.354858,552.420288 802.502441,556.418823 802.576599,559.990295 
	C802.960266,578.469299 802.881104,596.957886 802.966736,616.426392 
M553.740723,531.499817 
	C553.740723,562.584412 553.740723,593.669067 553.740723,624.695801 
	C573.398865,624.695801 592.766357,624.695801 612.248657,624.695801 
	C612.248657,572.065796 612.248657,519.857361 612.248657,467.419617 
	C592.744141,467.419617 573.533569,467.419617 553.743225,467.419617 
	C553.743225,488.626038 553.743225,509.562897 553.740723,531.499817 
M532.980774,508.498108 
	C530.958374,513.884094 528.936035,519.270081 526.940247,524.585449 
	C530.838257,527.907349 534.435059,530.972595 538.578979,534.504028 
	C538.578979,521.291443 538.578979,508.818329 538.578979,496.345215 
	C538.390869,496.263275 538.202698,496.181366 538.014587,496.099457 
	C536.425293,499.990173 534.835999,503.880920 532.980774,508.498108 
z"/>
<path fill="#FCFDFE" opacity="1.000000" stroke="none" 
	d="
M363.999451,643.871277 
	C290.417023,643.871277 217.334412,643.871277 143.086746,643.871277 
	C183.460678,574.591919 223.344101,506.154236 263.576996,437.116913 
	C303.908661,506.110260 343.917816,574.551941 384.440033,643.871277 
	C377.250671,643.871277 370.874969,643.871277 363.999451,643.871277 
M223.499878,620.778625 
	C263.397888,620.778625 303.295898,620.778625 344.139740,620.778625 
	C317.053070,574.444275 290.459778,528.953979 263.599274,483.006500 
	C236.680984,529.214294 210.199524,574.672241 183.340347,620.778625 
	C197.188232,620.778625 209.844055,620.778625 223.499878,620.778625 
z"/>
<path fill="#044DAE" opacity="1.000000" stroke="none" 
	d="
M482.978882,626.872437 
	C462.488007,629.646423 442.926636,625.240173 423.649353,619.002991 
	C417.204773,616.917786 410.944672,614.262451 404.179810,611.708984 
	C409.530029,598.566589 414.649689,585.990540 419.819305,573.291748 
	C429.510406,576.696228 438.942810,580.154297 448.481537,583.288818 
	C452.245361,584.525696 456.209717,585.366760 460.147766,585.807800 
	C465.750824,586.435364 470.269501,583.569763 471.710938,579.094177 
	C473.165863,574.576599 470.954071,568.650513 465.674469,566.799561 
	C458.212036,564.183350 450.359375,562.588989 442.589233,560.959961 
	C425.687469,557.416748 417.652100,550.005127 414.759247,532.759155 
	C413.321777,524.189575 412.300171,514.998840 413.830231,506.587585 
	C418.198364,482.574249 435.352142,470.826050 457.678802,465.874268 
	C482.615936,460.343506 506.049530,466.937988 529.590759,476.193542 
	C524.503784,489.383881 519.582886,502.143555 514.854309,514.404663 
	C503.380615,510.353455 492.559631,506.121674 481.475403,502.756989 
	C473.491638,500.333496 467.645081,503.138702 466.228241,508.783295 
	C464.614716,515.211243 468.941803,520.925781 477.094025,522.897522 
	C485.648071,524.966431 494.516144,526.110901 502.749390,529.052185 
	C518.668579,534.739319 531.508606,544.413818 537.272583,561.184753 
	C540.386169,570.244080 539.236816,579.265564 535.530945,587.948853 
	C531.147766,598.219238 524.747314,607.023987 515.351807,613.885986 
	C514.522522,613.522400 514.249329,613.233337 514.158813,612.645386 
	C515.131348,610.700806 515.921326,609.055054 516.711304,607.409302 
	C515.031616,606.984619 513.345703,606.177551 511.673401,606.204956 
	C506.031708,606.297119 500.393860,606.666260 494.756409,606.965149 
	C484.079071,607.531311 481.444824,609.882996 478.857208,620.387390 
	C477.901611,624.266479 479.149963,625.718628 482.945862,625.602295 
	C482.943695,626.194824 482.961273,626.533630 482.978882,626.872437 
M484.199615,570.350220 
	C483.844055,569.113953 483.488495,567.877686 483.052185,566.360657 
	C487.379730,565.115967 491.467163,563.940369 495.420197,562.803406 
	C495.869171,563.370544 496.219055,563.607422 496.248352,563.878906 
	C497.952881,579.671936 509.091095,590.062805 518.021301,601.685364 
	C518.776367,602.668091 520.656799,602.786072 522.014343,603.305847 
	C521.924072,601.702759 522.417297,599.698975 521.640198,598.567566 
	C518.631287,594.186401 515.535828,589.780518 511.884979,585.942932 
	C505.382538,579.107910 502.628052,570.824097 501.238800,561.622620 
	C502.064240,561.232361 503.151581,561.012024 503.763641,560.351257 
	C504.456360,559.603516 505.346680,557.977234 505.046021,557.589233 
	C504.397095,556.751770 502.880615,555.824158 502.000000,556.046387 
	C492.987793,558.320984 484.012848,560.753296 475.089569,563.354431 
	C474.193207,563.615784 473.348389,565.223999 473.186340,566.312378 
	C473.111755,566.813232 474.671234,567.739990 475.627960,568.155640 
	C476.436066,568.506714 477.443451,568.398865 478.253326,568.482849 
	C479.547913,572.286621 480.965729,575.682800 481.808502,579.216125 
	C482.317291,581.349182 482.446075,583.838257 481.865082,585.921814 
	C478.608734,597.600098 475.000214,609.180359 471.756927,620.862122 
	C471.347534,622.336609 472.376160,624.210327 472.738525,625.899109 
	C473.986725,624.658020 475.899078,623.629333 476.374878,622.141296 
	C479.358978,612.808899 481.632111,603.235107 484.912109,594.015747 
	C487.717865,586.129150 488.339966,578.658081 484.199615,570.350220 
M448.631256,478.957886 
	C442.360535,484.052765 440.988953,490.599060 444.980652,496.381653 
	C448.369232,501.290466 455.344727,502.948212 460.501038,500.070099 
	C466.219910,496.877960 468.475372,489.975342 465.699493,484.160553 
	C462.696625,477.870209 456.496033,475.763519 448.631256,478.957886 
M446.915344,548.514832 
	C450.947968,552.156616 455.445129,552.951294 460.190033,550.211365 
	C464.135895,547.932861 465.963806,544.259705 465.474670,539.712769 
	C464.962677,534.953491 462.319550,531.627625 457.671509,530.386658 
	C452.896179,529.111755 448.673096,530.375854 445.811218,534.570068 
	C442.734009,539.079834 443.111511,543.629822 446.915344,548.514832 
M450.859161,508.430389 
	C447.066010,505.975159 443.221680,505.875977 439.841583,508.928345 
	C437.055847,511.444000 435.484192,515.066772 437.875000,518.293396 
	C439.649902,520.688782 442.827911,523.229980 445.528503,523.403015 
	C447.971161,523.559631 451.292023,521.117188 453.008148,518.884888 
	C455.539764,515.591797 454.211304,511.937103 450.859161,508.430389 
M479.751862,553.822144 
	C481.281525,551.320618 483.752960,548.915710 484.022675,546.285034 
	C484.214966,544.409790 481.801331,541.054871 479.910126,540.484741 
	C477.533081,539.768066 473.614807,540.345703 472.002960,541.981750 
	C470.388245,543.620789 469.862122,547.506287 470.530914,549.949463 
	C471.567780,553.737305 475.140350,554.740356 479.751862,553.822144 
M492.001801,487.657532 
	C489.641022,483.880646 486.425354,482.384125 482.329407,484.632629 
	C478.955963,486.484528 477.942352,489.694336 479.327972,493.176727 
	C480.723267,496.683380 483.693207,498.268372 487.403320,497.209625 
	C491.807343,495.952881 493.358429,492.801727 492.001801,487.657532 
M473.068970,525.537720 
	C467.901611,526.032898 465.083282,528.628540 466.507111,532.299805 
	C467.246552,534.206360 469.783936,536.646057 471.486572,536.628662 
	C473.490967,536.608215 476.299652,534.611572 477.273529,532.710510 
	C478.862213,529.609375 476.894958,527.125244 473.068970,525.537720 
M428.798035,528.775208 
	C428.533386,532.011108 429.664795,534.806946 433.053955,534.893372 
	C435.116577,534.946045 438.032227,533.642883 439.067078,532.003418 
	C439.934235,530.629517 439.294464,527.392517 438.149719,525.850952 
	C435.779388,522.658936 431.951019,523.730103 428.798035,528.775208 
z"/>
<path fill="#044DAE" opacity="1.000000" stroke="none" 
	d="
M802.965088,615.934814 
	C802.881104,596.957886 802.960266,578.469299 802.576599,559.990295 
	C802.502441,556.418823 801.354858,552.420288 799.453491,549.406799 
	C783.125366,523.528320 766.507446,497.832794 749.987854,472.075073 
	C749.120667,470.722992 748.359497,469.302887 747.134827,467.205139 
	C758.125488,467.205139 768.369873,467.204529 778.614258,467.205383 
	C785.608765,467.205994 792.610718,467.400818 799.594666,467.130280 
	C803.155640,466.992371 805.281128,468.093811 807.277588,471.145752 
	C815.378784,483.529907 823.799500,495.704987 832.389954,508.381622 
	C833.330933,507.117218 834.150330,506.200531 834.764648,505.162445 
	C841.454651,493.858368 848.222656,482.597748 854.704834,471.175232 
	C856.406616,468.176514 858.324646,467.112793 861.750977,467.148224 
	C878.691711,467.323395 895.635254,467.227966 913.302551,467.227966 
	C912.102661,469.268250 911.166016,470.936371 910.159607,472.561310 
	C894.047729,498.574860 877.875000,524.551025 861.894775,550.645203 
	C860.429810,553.037354 859.510437,556.167053 859.477295,558.967773 
	C859.240845,578.949646 859.300232,598.934998 859.266296,618.919250 
	C859.263245,620.701782 859.265808,622.484314 859.265808,624.520996 
	C840.302612,624.520996 821.908386,624.520996 802.966736,624.520996 
	C802.966736,621.658997 802.966736,619.042664 802.965088,615.934814 
M876.301636,509.114838 
	C877.521179,507.262024 879.051697,505.521088 879.781921,503.492188 
	C880.018921,502.833557 878.276428,500.698303 877.234192,500.533203 
	C875.875122,500.317871 874.311951,501.390900 872.836609,501.909546 
	C877.725281,503.712708 878.075317,504.664764 876.168091,510.019714 
	C876.043335,510.563751 875.918579,511.107819 875.793884,511.651886 
	C875.544067,511.579498 875.294189,511.507111 875.044373,511.434692 
	C875.299438,510.844269 875.554565,510.253815 876.301636,509.114838 
M806.697937,595.012268 
	C806.697937,595.012268 806.985596,594.976440 806.985596,594.976440 
	C806.985596,594.976440 806.707336,594.985229 807.325562,595.091919 
	C808.912109,595.076416 811.197083,595.733887 811.968689,594.933167 
	C816.098267,590.647644 820.038147,586.140930 823.635437,581.400818 
	C824.974182,579.636719 825.205444,577.032104 826.203247,574.021851 
	C822.906006,575.993103 818.746033,577.294006 816.502686,580.117676 
	C813.614746,583.752441 812.391174,588.675537 810.160095,592.889954 
	C809.601135,593.945679 807.930786,594.413025 806.697937,595.012268 
M869.123047,524.041199 
	C867.344971,523.278259 864.665710,522.977905 863.984985,521.651733 
	C862.739929,519.226074 862.676453,516.193848 862.120300,513.414612 
	C862.714417,513.261780 863.308594,513.108948 863.902710,512.956116 
	C864.419128,513.713806 864.812195,514.615417 865.484070,515.191895 
	C866.274963,515.870361 867.265625,516.460205 868.259338,516.676086 
	C868.585876,516.746948 869.698120,515.384583 869.567261,514.934448 
	C869.270630,513.913574 868.612244,512.760315 867.750305,512.207275 
	C866.863159,511.638000 865.524109,511.430847 864.445129,511.565338 
	C860.850525,512.013428 858.782654,514.271362 858.301514,517.775085 
	C857.790833,521.494629 858.722351,524.988831 862.242004,526.727844 
	C865.292969,528.235291 868.433350,527.861267 870.767212,524.029663 
	C870.733337,523.772583 870.699524,523.515564 870.665649,523.258484 
	C870.426758,523.487061 870.187927,523.715637 869.123047,524.041199 
M847.237976,514.904907 
	C846.295044,515.496643 845.371277,516.560120 844.405823,516.599487 
	C839.932556,516.781982 835.447693,516.680115 831.303833,516.680115 
	C832.213501,522.570801 832.953186,527.360779 833.730408,532.394409 
	C835.334106,532.127686 837.058838,531.840820 838.742859,531.560730 
	C838.368958,526.791870 834.993103,522.254578 838.244507,518.193726 
	C838.932190,518.179626 839.619812,518.165527 840.307495,518.151367 
	C841.074097,522.389282 841.840637,526.627136 842.646240,531.080627 
	C844.550232,530.652771 846.290894,530.261658 848.099182,529.855286 
	C844.973572,523.690857 845.027100,518.915283 848.956299,516.369568 
	C849.760986,520.814575 850.500122,524.897400 851.293213,529.278198 
	C852.814453,529.121399 854.660095,528.931091 856.368896,528.754944 
	C855.830444,526.686707 855.353577,525.112488 855.020874,523.508362 
	C854.650635,521.722900 854.513916,519.885864 854.093262,518.114563 
	C853.316528,514.844177 851.518738,513.126343 847.237976,514.904907 
M795.904175,532.678101 
	C795.904175,534.698975 795.904175,536.719849 795.904175,538.751709 
	C808.943970,536.665161 808.943970,536.665161 809.533752,534.241882 
	C801.770020,537.766418 800.497498,536.866943 801.122253,527.927307 
	C802.452393,528.512329 803.669495,529.047607 805.279602,529.755676 
	C805.017029,527.137390 804.778748,524.760864 804.471436,521.696350 
	C803.009644,523.833313 802.060974,525.220215 800.258972,527.854553 
	C799.638306,523.723938 799.263000,521.226257 798.673523,517.303101 
	C802.725464,518.394470 805.642151,519.180054 808.552185,519.963806 
	C808.372253,519.128357 808.041809,517.593750 807.637878,515.717529 
	C802.357605,516.581421 797.344177,517.401672 793.039001,518.106079 
	C793.988037,522.874634 794.882263,527.367737 795.904175,532.678101 
M822.470398,590.253357 
	C822.470398,593.240295 822.470398,596.227295 822.470398,599.214233 
	C822.939148,599.241455 823.407898,599.268738 823.876648,599.295959 
	C824.006165,590.763916 829.060913,584.873718 835.225098,579.061462 
	C828.665710,580.054626 825.279419,583.017517 822.470398,590.253357 
M854.763245,587.067688 
	C854.389893,585.886414 854.016541,584.705200 853.315735,582.488037 
	C852.571777,592.231384 848.082092,598.643799 841.132019,603.787231 
	C849.230591,603.679077 854.770142,597.112366 854.763245,587.067688 
M842.165527,598.205139 
	C841.543213,595.918823 840.383728,593.626953 840.406982,591.347229 
	C840.460266,586.117798 839.641235,584.870361 835.962463,585.477905 
	C835.962463,587.972961 836.104126,590.394958 835.933472,592.794678 
	C835.560913,598.032898 837.548889,600.023682 842.165527,598.205139 
M816.437988,530.322510 
	C822.810425,531.639282 826.878418,529.976135 825.987244,525.380066 
	C822.612427,526.815002 819.400330,528.180725 816.437988,530.322510 
M825.854431,523.345276 
	C823.446960,517.863647 819.964294,523.143677 817.037598,522.575195 
	C816.513123,522.473328 815.688721,523.915588 815.002869,524.644958 
	C815.900757,525.045776 816.864624,525.888123 817.684387,525.765686 
	C820.291687,525.376526 822.845337,524.627930 825.854431,523.345276 
z"/>
<path fill="#074FAF" opacity="1.000000" stroke="none" 
	d="
M741.666931,486.991760 
	C746.541565,494.502930 751.416199,502.014130 756.971130,510.573608 
	C735.836304,510.573608 715.674377,510.573608 695.278748,510.573608 
	C695.278748,515.999695 695.278748,520.578369 695.278748,525.764771 
	C709.489807,525.764771 723.536560,525.764771 737.833374,525.764771 
	C737.833374,541.632080 737.833374,556.895996 737.833374,572.775574 
	C722.876892,572.775574 707.827209,572.775574 692.269775,572.775574 
	C692.269775,590.250305 692.269775,607.125671 692.269775,624.328003 
	C690.543091,624.490845 689.287476,624.609253 687.432373,624.433655 
	C687.106506,621.855225 687.612854,619.571167 687.615173,617.286499 
	C687.627991,604.629211 687.501953,591.971741 687.457458,579.314270 
	C687.436279,573.297485 695.780273,564.795837 701.734619,564.762268 
	C711.394165,564.707764 721.055420,564.775452 730.712219,564.593506 
	C732.254272,564.564453 733.776978,563.503845 735.308594,562.920166 
	C733.841248,562.287292 732.387024,561.146301 730.904297,561.108032 
	C723.914368,560.927612 716.839844,561.708069 709.940308,560.903503 
	C700.442383,559.795959 693.299744,562.674744 687.368042,570.087158 
	C685.267090,572.712463 683.944641,574.949707 683.997620,578.396729 
	C684.202393,591.717712 684.129272,605.043091 684.120483,618.366882 
	C684.119019,620.546326 683.920532,622.725708 683.813049,624.905151 
	C681.838196,624.794983 679.863342,624.684814 677.535034,624.226379 
	C677.181641,623.878052 676.977478,623.539246 677.444397,623.498413 
	C678.373352,621.818237 679.218323,620.182556 679.234070,618.538940 
	C679.323303,609.207214 680.031738,599.780029 678.977661,590.562805 
	C677.464539,577.330200 680.868469,566.639709 690.929993,557.779236 
	C693.899963,555.163818 696.086304,551.907288 700.642456,552.586426 
	C701.274902,559.100159 704.937317,561.708862 709.419678,559.224792 
	C711.974121,557.809265 714.996033,556.833130 717.896667,556.538757 
	C722.520020,556.069763 727.220032,556.399597 731.882751,556.245483 
	C733.122681,556.204468 734.344971,555.630859 735.575378,555.301758 
	C735.546875,554.762329 735.518372,554.222961 735.489868,553.683533 
	C734.026611,553.421448 732.566528,552.956787 731.099609,552.934387 
	C726.267944,552.860413 721.419250,552.726868 716.605713,553.046936 
	C713.283081,553.267944 710.840576,552.342468 709.528687,549.473999 
	C711.761047,549.482178 714.311279,550.411194 715.141174,549.593689 
	C719.322693,545.474854 724.435669,547.254944 729.171448,546.612793 
	C731.332642,546.319702 733.393982,545.290405 735.500610,544.595032 
	C733.434143,544.072937 731.389648,543.238342 729.296814,543.091309 
	C724.380798,542.745972 719.494080,543.948242 715.085388,539.742249 
	C712.245605,537.033081 707.261780,540.899475 707.776184,545.160583 
	C707.967468,546.745483 708.779297,548.255371 708.892822,549.670776 
	C706.768005,549.458557 705.058594,549.375122 703.153198,549.282043 
	C703.044739,548.267090 703.384827,546.490662 702.675659,545.814270 
	C701.051270,544.264954 698.909973,542.305176 696.987488,542.314758 
	C695.378540,542.322754 692.243530,545.157349 692.439514,546.274353 
	C693.430359,551.920288 689.218018,554.484192 686.543213,557.985657 
	C682.968628,562.665100 679.379089,567.333130 675.405273,571.998291 
	C674.234497,571.944153 673.454468,571.897766 672.829102,571.531250 
	C675.027771,568.798645 675.831177,565.842834 673.197266,563.879578 
	C671.473694,562.594971 668.555786,562.888306 666.163330,562.540100 
	C665.412781,562.430847 664.631287,562.533813 663.886230,562.158203 
	C670.572998,554.739441 671.488281,546.255371 671.132751,536.971802 
	C670.585632,522.685791 670.885864,508.363556 671.041931,494.058990 
	C671.062439,492.181549 671.983704,490.038849 673.136963,488.508118 
	C675.305115,485.630554 675.777832,482.610870 672.870361,480.690338 
	C671.146912,479.551941 667.572327,479.428467 665.838745,480.492279 
	C662.894531,482.298981 663.367554,485.426239 665.199158,488.391388 
	C666.316284,490.199768 667.389954,492.408264 667.422424,494.453827 
	C667.662048,509.588959 667.313538,524.739380 667.832031,539.861572 
	C668.079163,547.069275 666.471313,553.055603 661.955872,558.671082 
	C660.266174,560.772461 659.290710,564.033447 659.253540,566.782776 
	C659.022095,583.913940 659.113831,601.050049 659.213318,618.183960 
	C659.222961,619.848755 660.013855,621.509094 660.442078,623.171570 
	C660.225220,623.712402 660.053467,624.694214 659.784119,624.721741 
	C658.155273,624.888428 656.504272,624.836975 654.253784,624.530823 
	C654.050537,622.131592 654.791748,620.061890 654.803894,617.988037 
	C654.897583,602.021667 654.989685,586.052490 654.759521,570.088806 
	C654.691711,565.387329 655.752441,561.475952 658.438110,557.597900 
	C660.428833,554.723450 662.541382,551.199585 662.663879,547.893311 
	C663.168335,534.272278 663.011719,520.623047 662.873108,506.986481 
	C662.855652,505.267426 661.958130,503.040314 660.693176,501.939301 
	C654.803589,496.813202 648.687683,491.941010 642.526367,487.140167 
	C641.615173,486.430145 640.028137,486.587463 638.753784,486.343506 
	C639.366211,487.532959 639.699768,489.045380 640.638977,489.856506 
	C644.914368,493.549072 649.107727,497.430206 653.812012,500.507629 
	C659.049316,503.933777 660.527405,508.279388 658.871338,514.013428 
	C658.446899,513.988892 658.276855,513.985962 657.882935,513.686523 
	C655.191406,510.149384 652.074036,509.597839 649.094482,512.215149 
	C646.156250,514.796265 646.920227,517.683899 649.399414,520.497437 
	C650.339233,521.564026 650.868958,523.323242 650.914551,524.787598 
	C651.085144,530.268677 650.559448,535.798462 651.080322,541.234741 
	C651.741516,548.136169 649.948792,553.825134 645.244263,558.889282 
	C643.918152,560.316833 642.872559,562.641235 642.864746,564.558960 
	C642.785400,584.008362 642.948059,603.458801 643.015503,623.208740 
	C642.978882,623.909424 642.969604,624.310364 642.960327,624.711243 
	C640.641235,624.711243 638.322144,624.711243 635.617371,624.711243 
	C635.617371,572.421265 635.617371,520.206909 635.617371,467.167725 
	C637.256958,467.167725 639.000549,467.167389 640.744080,467.167725 
	C666.733643,467.172882 692.733032,467.579773 718.706970,466.945648 
	C726.804504,466.747955 732.004639,468.785431 734.957153,476.875366 
	C734.995728,477.676392 734.990234,477.860443 734.519897,477.988831 
	C728.909302,477.885986 723.758362,477.952637 718.621155,477.718842 
	C717.169373,477.652740 715.782349,476.626282 714.321777,476.185211 
	C712.123840,475.521423 709.581055,474.068848 707.761597,474.677063 
	C706.234253,475.187622 704.306519,478.558929 704.756653,479.953217 
	C705.393799,481.926971 708.054749,483.247406 710.335083,485.264557 
	C707.284912,488.242523 700.714600,488.118042 697.896606,485.280121 
	C693.445312,480.797577 689.136108,476.173889 684.681824,471.694427 
	C683.543762,470.549988 682.086304,469.723145 680.775635,468.750366 
	C680.438660,469.028961 680.101746,469.307556 679.764771,469.586151 
	C680.087708,470.536041 680.149414,471.730896 680.774475,472.397491 
	C686.236877,478.222595 691.736145,484.017395 697.398499,489.646240 
	C698.300781,490.543213 700.066589,490.929565 701.437988,490.940582 
	C713.586853,491.038177 725.737183,490.949219 737.886169,491.033203 
	C740.834290,491.053558 742.387146,490.195953 741.666931,486.991760 
M689.448547,535.739746 
	C686.053711,537.982910 685.131897,543.215515 679.843628,543.282654 
	C676.478027,543.325317 674.089905,545.224854 674.125305,548.860779 
	C674.157043,552.116455 676.018738,554.250244 679.376282,554.292053 
	C683.230408,554.340088 684.942444,552.116455 685.064392,548.289062 
	C685.223694,543.291931 692.098572,536.932312 697.156860,536.919312 
	C708.287170,536.890686 719.417847,536.922180 730.547546,536.833008 
	C732.303284,536.818970 734.054993,536.302246 735.808533,536.017944 
	C735.835083,535.440796 735.861633,534.863647 735.888245,534.286499 
	C734.325073,533.915527 732.763489,533.231018 731.198608,533.223389 
	C719.238098,533.164856 707.275757,533.160034 695.317444,533.354736 
	C693.519958,533.383972 691.740723,534.537476 689.448547,535.739746 
M719.500000,501.034729 
	C728.683350,500.618042 737.999695,501.954681 747.093018,499.280121 
	C745.404114,498.088928 743.713684,497.791016 742.021362,497.780334 
	C727.713379,497.689911 713.405029,497.644104 699.096802,497.604584 
	C696.137451,497.596436 693.522156,497.574371 690.984375,495.087799 
	C689.814636,493.941620 685.457764,494.249542 684.167725,495.530884 
	C682.880371,496.809570 682.633850,500.894775 683.752380,502.337372 
	C684.848938,503.751648 689.444031,504.563232 690.398254,503.585205 
	C693.349487,500.560333 696.642822,501.039764 700.032349,501.022247 
	C706.188049,500.990387 712.344116,501.026031 719.500000,501.034729 
z"/>
<path fill="#074FAF" opacity="1.000000" stroke="none" 
	d="
M553.741943,530.999756 
	C553.743225,509.562897 553.743225,488.626038 553.743225,467.419617 
	C573.533569,467.419617 592.744141,467.419617 612.248657,467.419617 
	C612.248657,519.857361 612.248657,572.065796 612.248657,624.695801 
	C592.766357,624.695801 573.398865,624.695801 553.740723,624.695801 
	C553.740723,593.669067 553.740723,562.584412 553.741943,530.999756 
M579.876343,542.455261 
	C579.783691,537.108215 581.789734,532.667969 585.977051,529.394287 
	C593.189514,523.755249 600.382141,526.773315 608.165527,530.594177 
	C608.468994,526.015381 608.649170,522.251709 608.990540,518.502686 
	C609.230957,515.862671 608.000244,515.150024 605.562622,514.821716 
	C603.924805,514.601196 602.370667,513.388489 600.894592,512.440002 
	C599.332092,511.435974 597.895996,509.323364 596.423706,509.340332 
	C594.867065,509.358246 592.723999,510.987549 591.912659,512.492737 
	C590.104553,515.847229 588.201965,516.425354 585.105957,514.575134 
	C583.649597,513.704773 580.959290,513.461487 579.610107,514.258240 
	C578.290161,515.037781 577.353149,517.493713 577.331848,519.227051 
	C577.289551,522.673706 575.651184,524.461121 572.402222,523.221619 
	C569.586792,522.147522 567.858704,522.627747 566.120300,525.168701 
	C564.276978,527.863037 565.499573,529.208984 567.383057,531.008301 
	C570.001282,533.509521 569.121216,537.101196 565.724121,538.178528 
	C563.530396,538.874146 561.656860,539.381653 561.931091,542.385681 
	C562.195374,545.280151 562.750000,547.382690 566.167969,548.136169 
	C569.667847,548.907593 570.153992,551.772461 568.161804,554.780823 
	C567.245422,556.164673 566.594482,558.319824 566.974609,559.836792 
	C567.664246,562.589539 569.820129,563.459290 572.825134,562.805054 
	C576.260864,562.057129 577.895386,563.944031 576.982971,567.261780 
	C576.308105,569.715393 575.712769,571.574890 578.597961,573.075195 
	C581.152832,574.403687 583.210266,575.389404 585.645752,572.759888 
	C588.340271,569.850708 590.535522,570.007202 592.333801,574.113525 
	C592.958313,575.539612 595.444641,576.851196 597.112488,576.891296 
	C598.379150,576.921814 599.683472,574.841309 600.994812,573.728149 
	C602.106506,572.784424 603.131653,571.612793 604.416687,571.034241 
	C605.709656,570.452026 607.276062,570.477234 609.033691,570.184509 
	C609.367859,564.723633 609.683838,559.560120 610.100952,552.744629 
	C603.453369,557.535767 597.734253,560.610474 590.971802,558.398865 
	C583.765259,556.041931 580.652649,550.502441 579.876343,542.455261 
M563.149170,596.060791 
	C579.176208,597.829346 583.931763,608.831787 584.704285,622.926331 
	C592.005615,622.926331 598.948608,622.926331 605.811523,622.926331 
	C607.791260,615.496216 606.995300,613.250916 602.726868,612.568054 
	C601.288940,612.337952 599.559814,611.309631 598.787476,610.114136 
	C597.424194,608.003723 597.454651,605.693787 600.085999,604.155273 
	C603.193848,602.338196 603.594666,600.122070 601.235596,597.253357 
	C599.908081,595.639099 598.978027,593.697998 597.808899,591.807068 
	C595.451660,592.924927 593.540283,593.831421 590.626770,595.213074 
	C589.579712,592.222778 587.313110,589.127625 587.973022,586.899048 
	C589.178284,582.828186 588.178833,581.095276 584.613953,579.719543 
	C582.646301,578.960266 580.863220,577.722473 580.002808,577.251282 
	C576.969971,579.103882 574.749817,581.576904 572.468018,581.635071 
	C566.655457,581.783386 569.739807,575.921204 567.720032,573.223694 
	C563.863037,573.223694 559.982788,573.223694 556.238647,573.223694 
	C556.238647,581.176941 556.238647,588.694336 556.238647,596.352112 
	C558.604919,596.236328 560.416748,596.147705 563.149170,596.060791 
M580.899170,505.610870 
	C583.161072,505.319763 585.422913,505.028625 587.684814,504.737488 
	C588.673584,502.617004 590.318604,501.377045 591.673706,499.875458 
	C592.314880,499.164978 592.510376,497.975494 592.710388,496.964020 
	C592.938049,495.813599 592.490356,494.128998 593.131531,493.534546 
	C595.235657,491.583893 594.760925,490.304779 592.813232,488.693420 
	C592.212769,488.196655 591.800110,486.778717 592.061462,486.058197 
	C593.036621,483.369598 592.545898,481.953583 589.462891,481.659882 
	C588.857483,481.602234 588.499451,480.133026 587.796997,479.649139 
	C586.534790,478.779572 585.142273,478.054504 583.719849,477.476593 
	C582.632019,477.034637 581.418945,476.889618 580.252930,476.655090 
	C579.235657,476.450470 578.127808,475.977386 577.198303,476.200195 
	C575.062927,476.712067 573.011963,477.575684 571.234619,478.190125 
	C569.300720,479.869049 567.432983,481.490509 566.267151,482.502686 
	C565.052917,485.314056 563.984497,487.462524 563.231079,489.716339 
	C562.981934,490.461487 563.238159,491.819977 563.787964,492.313171 
	C566.639893,494.871429 563.476196,500.819885 569.130066,501.755188 
	C569.208069,501.768097 568.924255,502.903809 569.172607,503.152130 
	C569.896301,503.875732 571.170288,505.122711 571.580872,504.910614 
	C574.163940,503.576263 575.435547,504.953796 577.013245,506.669403 
	C577.464172,507.159760 579.262207,506.411316 580.899170,505.610870 
z"/>
<path fill="#E2EBF6" opacity="1.000000" stroke="none" 
	d="
M660.790649,623.152832 
	C660.013855,621.509094 659.222961,619.848755 659.213318,618.183960 
	C659.113831,601.050049 659.022095,583.913940 659.253540,566.782776 
	C659.290710,564.033447 660.266174,560.772461 661.955872,558.671082 
	C666.471313,553.055603 668.079163,547.069275 667.832031,539.861572 
	C667.313538,524.739380 667.662048,509.588959 667.422424,494.453827 
	C667.389954,492.408264 666.316284,490.199768 665.199158,488.391388 
	C663.367554,485.426239 662.894531,482.298981 665.838745,480.492279 
	C667.572327,479.428467 671.146912,479.551941 672.870361,480.690338 
	C675.777832,482.610870 675.305115,485.630554 673.136963,488.508118 
	C671.983704,490.038849 671.062439,492.181549 671.041931,494.058990 
	C670.885864,508.363556 670.585632,522.685791 671.132751,536.971802 
	C671.488281,546.255371 670.572998,554.739441 663.913696,562.161011 
	C663.918823,562.545227 663.971985,562.525146 663.561035,562.699341 
	C663.107117,564.916504 663.064087,566.959595 662.926147,569.462830 
	C662.825378,585.897705 662.849365,601.872498 662.769958,617.846802 
	C662.761475,619.556274 662.149902,621.262695 661.818054,622.970520 
	C661.591797,623.025085 661.365479,623.079651 660.790649,623.152832 
z"/>
<path fill="#DBE5F3" opacity="1.000000" stroke="none" 
	d="
M659.125671,514.035034 
	C660.527405,508.279388 659.049316,503.933777 653.812012,500.507629 
	C649.107727,497.430206 644.914368,493.549072 640.638977,489.856506 
	C639.699768,489.045380 639.366211,487.532959 638.753784,486.343506 
	C640.028137,486.587463 641.615173,486.430145 642.526367,487.140167 
	C648.687683,491.941010 654.803589,496.813202 660.693176,501.939301 
	C661.958130,503.040314 662.855652,505.267426 662.873108,506.986481 
	C663.011719,520.623047 663.168335,534.272278 662.663879,547.893311 
	C662.541382,551.199585 660.428833,554.723450 658.438110,557.597900 
	C655.752441,561.475952 654.691711,565.387329 654.759521,570.088806 
	C654.989685,586.052490 654.897583,602.021667 654.803894,617.988037 
	C654.791748,620.061890 654.050537,622.131592 653.829956,624.598755 
	C653.589661,625.047852 653.166382,625.101440 652.674316,624.721191 
	C652.138489,622.402039 651.277283,620.519043 651.265686,618.630859 
	C651.158630,601.183594 651.144531,583.735107 651.267822,566.288086 
	C651.282227,564.258362 651.715393,561.749084 652.941406,560.293213 
	C658.560364,553.620667 659.976196,546.028931 659.368225,537.594788 
	C658.975281,532.143250 659.482910,526.631836 659.365295,521.152039 
	C659.335144,519.744812 658.466125,518.355530 657.938477,516.643066 
	C657.921265,515.905884 657.947998,515.483582 658.309937,515.151611 
	C658.805359,514.839539 658.965515,514.437317 659.125671,514.035034 
z"/>
<path fill="#2362B8" opacity="1.000000" stroke="none" 
	d="
M657.982483,516.958008 
	C658.466125,518.355530 659.335144,519.744812 659.365295,521.152039 
	C659.482910,526.631836 658.975281,532.143250 659.368225,537.594788 
	C659.976196,546.028931 658.560364,553.620667 652.941406,560.293213 
	C651.715393,561.749084 651.282227,564.258362 651.267822,566.288086 
	C651.144531,583.735107 651.158630,601.183594 651.265686,618.630859 
	C651.277283,620.519043 652.138489,622.402039 652.357178,624.667480 
	C649.357910,624.997437 646.607056,624.947327 643.408325,624.804260 
	C642.969604,624.310364 642.978882,623.909424 643.450500,623.332275 
	C644.655579,621.698425 646.033691,620.245117 646.043579,618.782532 
	C646.152710,602.650757 646.213440,586.514404 645.907043,570.386536 
	C645.810120,565.286926 646.613708,560.916443 650.369080,557.288818 
	C653.697510,554.073669 654.127502,550.040955 654.440186,545.537903 
	C655.104431,535.973633 651.227722,525.764526 657.982483,516.958008 
z"/>
<path fill="#DBE5F3" opacity="1.000000" stroke="none" 
	d="
M684.234375,624.992676 
	C683.920532,622.725708 684.119019,620.546326 684.120483,618.366882 
	C684.129272,605.043091 684.202393,591.717712 683.997620,578.396729 
	C683.944641,574.949707 685.267090,572.712463 687.368042,570.087158 
	C693.299744,562.674744 700.442383,559.795959 709.940308,560.903503 
	C716.839844,561.708069 723.914368,560.927612 730.904297,561.108032 
	C732.387024,561.146301 733.841248,562.287292 735.308594,562.920166 
	C733.776978,563.503845 732.254272,564.564453 730.712219,564.593506 
	C721.055420,564.775452 711.394165,564.707764 701.734619,564.762268 
	C695.780273,564.795837 687.436279,573.297485 687.457458,579.314270 
	C687.501953,591.971741 687.627991,604.629211 687.615173,617.286499 
	C687.612854,619.571167 687.106506,621.855225 687.024048,624.514832 
	C686.362000,624.953491 685.508850,625.016846 684.234375,624.992676 
z"/>
<path fill="#DFE8F5" opacity="1.000000" stroke="none" 
	d="
M663.971985,562.525146 
	C663.971985,562.525146 663.918823,562.545227 663.891357,562.542480 
	C664.631287,562.533813 665.412781,562.430847 666.163330,562.540100 
	C668.555786,562.888306 671.473694,562.594971 673.197266,563.879578 
	C675.831177,565.842834 675.027771,568.798645 672.446838,571.673706 
	C671.587219,573.838989 670.992371,575.540710 670.985046,577.244934 
	C670.926880,590.815979 671.014038,604.387634 670.956116,617.958679 
	C670.948914,619.642456 670.352722,621.323792 670.029419,623.006226 
	C669.675354,623.047546 669.321228,623.088928 668.429932,622.679077 
	C667.727966,608.195068 667.476196,594.162354 667.451782,580.129333 
	C667.444519,575.937073 667.489075,571.930969 663.836304,568.522461 
	C663.881531,566.193604 663.926758,564.359375 663.971985,562.525146 
z"/>
<path fill="#DFE8F5" opacity="1.000000" stroke="none" 
	d="
M741.675537,487.029419 
	C742.387146,490.195953 740.834290,491.053558 737.886169,491.033203 
	C725.737183,490.949219 713.586853,491.038177 701.437988,490.940582 
	C700.066589,490.929565 698.300781,490.543213 697.398499,489.646240 
	C691.736145,484.017395 686.236877,478.222595 680.774475,472.397491 
	C680.149414,471.730896 680.087708,470.536041 679.764771,469.586151 
	C680.101746,469.307556 680.438660,469.028961 680.775635,468.750366 
	C682.086304,469.723145 683.543762,470.549988 684.681824,471.694427 
	C689.136108,476.173889 693.445312,480.797577 697.896606,485.280121 
	C700.714600,488.118042 707.284912,488.242523 710.361145,485.247284 
	C709.902893,484.812500 710.017822,484.847443 709.605713,485.310852 
	C710.098022,486.284698 711.002014,487.237030 711.906860,487.237854 
	C721.794556,487.246552 731.682495,487.106567 741.570312,487.007050 
	C741.570312,487.007050 741.684082,487.067139 741.675537,487.029419 
z"/>
<path fill="#004AAD" opacity="1.000000" stroke="none" 
	d="
M669.945435,623.415527 
	C670.352722,621.323792 670.948914,619.642456 670.956116,617.958679 
	C671.014038,604.387634 670.926880,590.815979 670.985046,577.244934 
	C670.992371,575.540710 671.587219,573.838989 672.292114,571.993713 
	C673.454468,571.897766 674.234497,571.944153 675.474487,572.462036 
	C675.979614,587.879883 675.992798,602.826416 676.109314,617.772156 
	C676.124329,619.696655 676.674988,621.617004 676.977539,623.539246 
	C676.977478,623.539246 677.181641,623.878052 677.198486,623.856689 
	C674.764038,623.831848 672.312744,623.828369 669.945435,623.415527 
z"/>
<path fill="#1156B3" opacity="1.000000" stroke="none" 
	d="
M533.113770,508.134888 
	C534.835999,503.880920 536.425293,499.990173 538.014587,496.099457 
	C538.202698,496.181366 538.390869,496.263275 538.578979,496.345215 
	C538.578979,508.818329 538.578979,521.291443 538.578979,534.504028 
	C534.435059,530.972595 530.838257,527.907349 526.940247,524.585449 
	C528.936035,519.270081 530.958374,513.884094 533.113770,508.134888 
z"/>
<path fill="#1156B3" opacity="1.000000" stroke="none" 
	d="
M663.836304,569.017151 
	C667.489075,571.930969 667.444519,575.937073 667.451782,580.129333 
	C667.476196,594.162354 667.727966,608.195068 668.167358,622.624695 
	C666.523132,626.187561 664.070679,624.932495 661.728149,623.406677 
	C662.149902,621.262695 662.761475,619.556274 662.769958,617.846802 
	C662.849365,601.872498 662.825378,585.897705 663.129944,569.469360 
	C663.428589,569.015747 663.836304,569.017151 663.836304,569.017151 
z"/>
<path fill="#074FAF" opacity="1.000000" stroke="none" 
	d="
M741.317810,486.740265 
	C731.682495,487.106567 721.794556,487.246552 711.906860,487.237854 
	C711.002014,487.237030 710.098022,486.284698 710.029236,485.335022 
	C714.917236,480.122681 720.450073,481.174805 725.701233,481.131866 
	C727.829468,481.114471 729.996277,481.367767 732.071228,481.034821 
	C733.217407,480.850861 734.209778,479.708557 735.534973,478.976685 
	C735.972961,478.930176 736.147400,478.905243 736.321899,478.880249 
	C737.903076,481.411346 739.484192,483.942413 741.317810,486.740265 
z"/>
<path fill="#2362B8" opacity="1.000000" stroke="none" 
	d="
M513.976196,612.944275 
	C514.249329,613.233337 514.522522,613.522400 515.036316,613.989441 
	C506.256744,622.042236 495.312561,625.187378 483.395813,626.919495 
	C482.961273,626.533630 482.943695,626.194824 483.336761,625.468201 
	C494.919922,623.765564 505.125183,620.041504 513.976196,612.944275 
z"/>
<path fill="#074FAF" opacity="1.000000" stroke="none" 
	d="
M736.256470,478.577759 
	C736.147400,478.905243 735.972961,478.930176 735.414795,478.752808 
	C735.015747,478.381836 735.000244,478.213135 734.984802,478.044464 
	C734.990234,477.860443 734.995728,477.676392 735.011353,477.216248 
	C735.411438,477.385193 735.801270,477.830200 736.256470,478.577759 
z"/>
<path fill="#024CAE" opacity="1.000000" stroke="none" 
	d="
M222.999878,620.778625 
	C209.844055,620.778625 197.188232,620.778625 183.340347,620.778625 
	C210.199524,574.672241 236.680984,529.214294 263.599274,483.006500 
	C290.459778,528.953979 317.053070,574.444275 344.139740,620.778625 
	C303.295898,620.778625 263.397888,620.778625 222.999878,620.778625 
z"/>
<path fill="#F1F5FA" opacity="1.000000" stroke="none" 
	d="
M484.325897,570.717468 
	C488.339966,578.658081 487.717865,586.129150 484.912109,594.015747 
	C481.632111,603.235107 479.358978,612.808899 476.374878,622.141296 
	C475.899078,623.629333 473.986725,624.658020 472.738525,625.899109 
	C472.376160,624.210327 471.347534,622.336609 471.756927,620.862122 
	C475.000214,609.180359 478.608734,597.600098 481.865082,585.921814 
	C482.446075,583.838257 482.317291,581.349182 481.808502,579.216125 
	C480.965729,575.682800 479.547913,572.286621 478.253326,568.482849 
	C477.443451,568.398865 476.436066,568.506714 475.627960,568.155640 
	C474.671234,567.739990 473.111755,566.813232 473.186340,566.312378 
	C473.348389,565.223999 474.193207,563.615784 475.089569,563.354431 
	C484.012848,560.753296 492.987793,558.320984 502.000000,556.046387 
	C502.880615,555.824158 504.397095,556.751770 505.046021,557.589233 
	C505.346680,557.977234 504.456360,559.603516 503.763641,560.351257 
	C503.151581,561.012024 502.064240,561.232361 501.238800,561.622620 
	C502.628052,570.824097 505.382538,579.107910 511.884979,585.942932 
	C515.535828,589.780518 518.631287,594.186401 521.640198,598.567566 
	C522.417297,599.698975 521.924072,601.702759 522.014343,603.305786 
	C520.656799,602.786072 518.776367,602.668091 518.021301,601.685364 
	C509.091095,590.062805 497.952881,579.671936 496.248352,563.878906 
	C496.219055,563.607422 495.869171,563.370544 495.420197,562.803406 
	C491.467163,563.940369 487.379730,565.115967 483.052185,566.360657 
	C483.488495,567.877686 483.844055,569.113953 484.325897,570.717468 
z"/>
<path fill="#F8FAFD" opacity="1.000000" stroke="none" 
	d="
M514.158813,612.645386 
	C505.125183,620.041504 494.919922,623.765564 483.356506,625.214478 
	C479.149963,625.718628 477.901611,624.266479 478.857208,620.387390 
	C481.444824,609.882996 484.079071,607.531311 494.756409,606.965149 
	C500.393860,606.666260 506.031708,606.297119 511.673401,606.204956 
	C513.345703,606.177551 515.031616,606.984619 516.711304,607.409302 
	C515.921326,609.055054 515.131348,610.700806 514.158813,612.645386 
z"/>
<path fill="#E6EDF7" opacity="1.000000" stroke="none" 
	d="
M448.963928,478.772705 
	C456.496033,475.763519 462.696625,477.870209 465.699493,484.160553 
	C468.475372,489.975342 466.219910,496.877960 460.501038,500.070099 
	C455.344727,502.948212 448.369232,501.290466 444.980652,496.381653 
	C440.988953,490.599060 442.360535,484.052765 448.963928,478.772705 
M459.859070,496.532074 
	C465.208313,490.706116 463.897278,482.708557 457.259003,481.065460 
	C453.387939,480.107269 449.952759,480.969086 447.716522,484.523224 
	C445.571167,487.933044 445.575775,491.490356 448.096497,494.693939 
	C451.079346,498.484894 454.912354,499.005554 459.859070,496.532074 
z"/>
<path fill="#E6EDF7" opacity="1.000000" stroke="none" 
	d="
M446.644165,548.241089 
	C443.111511,543.629822 442.734009,539.079834 445.811218,534.570068 
	C448.673096,530.375854 452.896179,529.111755 457.671509,530.386658 
	C462.319550,531.627625 464.962677,534.953491 465.474670,539.712769 
	C465.963806,544.259705 464.135895,547.932861 460.190033,550.211365 
	C455.445129,552.951294 450.947968,552.156616 446.644165,548.241089 
M452.116241,547.951111 
	C456.603088,549.015686 460.108154,547.650757 461.742828,543.273193 
	C463.024200,539.841919 461.928009,536.730530 458.812042,534.601685 
	C455.403015,532.272644 451.189789,533.022888 448.698853,536.296875 
	C445.780975,540.132080 446.635712,543.781067 452.116241,547.951111 
z"/>
<path fill="#E6EDF7" opacity="1.000000" stroke="none" 
	d="
M451.166565,508.690552 
	C454.211304,511.937103 455.539764,515.591797 453.008148,518.884888 
	C451.292023,521.117188 447.971161,523.559631 445.528503,523.403015 
	C442.827911,523.229980 439.649902,520.688782 437.875000,518.293396 
	C435.484192,515.066772 437.055847,511.444000 439.841583,508.928345 
	C443.221680,505.875977 447.066010,505.975159 451.166565,508.690552 
M450.038483,512.517273 
	C446.067871,509.137573 442.068604,509.312317 441.021271,513.215271 
	C440.565430,514.914185 441.211182,517.594727 442.396362,518.839294 
	C443.415009,519.909058 446.851166,520.441101 447.561646,519.674866 
	C449.066956,518.051453 449.491730,515.426147 450.038483,512.517273 
z"/>
<path fill="#ECF2F9" opacity="1.000000" stroke="none" 
	d="
M479.365417,553.934448 
	C475.140350,554.740356 471.567780,553.737305 470.530914,549.949463 
	C469.862122,547.506287 470.388245,543.620789 472.002960,541.981750 
	C473.614807,540.345703 477.533081,539.768066 479.910126,540.484741 
	C481.801331,541.054871 484.214966,544.409790 484.022675,546.285034 
	C483.752960,548.915710 481.281525,551.320618 479.365417,553.934448 
M476.614655,550.863708 
	C478.041931,549.768860 479.879150,548.915710 480.726624,547.478882 
	C481.161865,546.740906 480.067078,544.058105 479.247986,543.843872 
	C477.638367,543.422974 475.057343,543.461853 474.092621,544.471191 
	C471.689392,546.985474 472.952026,549.272522 476.614655,550.863708 
z"/>
<path fill="#ECF2F9" opacity="1.000000" stroke="none" 
	d="
M492.120178,488.007507 
	C493.358429,492.801727 491.807343,495.952881 487.403320,497.209625 
	C483.693207,498.268372 480.723267,496.683380 479.327972,493.176727 
	C477.942352,489.694336 478.955963,486.484528 482.329407,484.632629 
	C486.425354,482.384125 489.641022,483.880646 492.120178,488.007507 
M485.646057,494.136536 
	C486.784241,492.829681 488.306976,491.666473 488.874695,490.146545 
	C489.107727,489.522675 487.294647,487.299500 486.387878,487.284515 
	C485.091766,487.263123 482.647827,488.670319 482.689178,489.345154 
	C482.787292,490.945740 484.059326,492.474365 485.646057,494.136536 
z"/>
<path fill="#DFE8F5" opacity="1.000000" stroke="none" 
	d="
M473.420532,525.655945 
	C476.894958,527.125244 478.862213,529.609375 477.273529,532.710510 
	C476.299652,534.611572 473.490967,536.608215 471.486572,536.628662 
	C469.783936,536.646057 467.246552,534.206360 466.507111,532.299805 
	C465.083282,528.628540 467.901611,526.032898 473.420532,525.655945 
z"/>
<path fill="#ECF2F9" opacity="1.000000" stroke="none" 
	d="
M428.865509,528.372559 
	C431.951019,523.730103 435.779388,522.658936 438.149719,525.850952 
	C439.294464,527.392517 439.934235,530.629517 439.067078,532.003418 
	C438.032227,533.642883 435.116577,534.946045 433.053955,534.893372 
	C429.664795,534.806946 428.533386,532.011108 428.865509,528.372559 
z"/>
<path fill="#E6EDF7" opacity="1.000000" stroke="none" 
	d="
M847.596985,514.708862 
	C851.518738,513.126343 853.316528,514.844177 854.093262,518.114563 
	C854.513916,519.885864 854.650635,521.722900 855.020874,523.508362 
	C855.353577,525.112488 855.830444,526.686707 856.368896,528.754944 
	C854.660095,528.931091 852.814453,529.121399 851.293213,529.278198 
	C850.500122,524.897400 849.760986,520.814575 848.956299,516.369568 
	C845.027100,518.915283 844.973572,523.690857 848.099182,529.855286 
	C846.290894,530.261658 844.550232,530.652771 842.646240,531.080627 
	C841.840637,526.627136 841.074097,522.389282 840.307495,518.151367 
	C839.619812,518.165527 838.932190,518.179626 838.244507,518.193726 
	C834.993103,522.254578 838.368958,526.791870 838.742859,531.560730 
	C837.058838,531.840820 835.334106,532.127686 833.730408,532.394409 
	C832.953186,527.360779 832.213501,522.570801 831.303833,516.680115 
	C835.447693,516.680115 839.932556,516.781982 844.405823,516.599487 
	C845.371277,516.560120 846.295044,515.496643 847.596985,514.708862 
z"/>
<path fill="#DFE8F5" opacity="1.000000" stroke="none" 
	d="
M795.840332,532.269470 
	C794.882263,527.367737 793.988037,522.874634 793.039001,518.106079 
	C797.344177,517.401672 802.357605,516.581421 807.637878,515.717529 
	C808.041809,517.593750 808.372253,519.128357 808.552185,519.963806 
	C805.642151,519.180054 802.725464,518.394470 798.673523,517.303101 
	C799.263000,521.226257 799.638306,523.723938 800.258972,527.854553 
	C802.060974,525.220215 803.009644,523.833313 804.471436,521.696350 
	C804.778748,524.760864 805.017029,527.137390 805.279602,529.755676 
	C803.669495,529.047607 802.452393,528.512329 801.122253,527.927307 
	C800.497498,536.866943 801.770020,537.766418 809.533752,534.241882 
	C808.943970,536.665161 808.943970,536.665161 795.904175,538.751709 
	C795.904175,536.719849 795.904175,534.698975 795.840332,532.269470 
z"/>
<path fill="#E2EBF6" opacity="1.000000" stroke="none" 
	d="
M870.392212,524.420837 
	C868.433350,527.861267 865.292969,528.235291 862.242004,526.727844 
	C858.722351,524.988831 857.790833,521.494629 858.301514,517.775085 
	C858.782654,514.271362 860.850525,512.013428 864.445129,511.565338 
	C865.524109,511.430847 866.863159,511.638000 867.750305,512.207275 
	C868.612244,512.760315 869.270630,513.913574 869.567261,514.934448 
	C869.698120,515.384583 868.585876,516.746948 868.259338,516.676086 
	C867.265625,516.460205 866.274963,515.870361 865.484070,515.191895 
	C864.812195,514.615417 864.419128,513.713806 863.902710,512.956116 
	C863.308594,513.108948 862.714417,513.261780 862.120300,513.414612 
	C862.676453,516.193848 862.739929,519.226074 863.984985,521.651733 
	C864.665710,522.977905 867.344971,523.278259 869.646362,524.112305 
	C870.169678,524.183472 870.392212,524.420837 870.392212,524.420837 
z"/>
<path fill="#E6EDF7" opacity="1.000000" stroke="none" 
	d="
M806.771301,595.150818 
	C807.930786,594.413025 809.601135,593.945679 810.160095,592.889954 
	C812.391174,588.675537 813.614746,583.752441 816.502686,580.117676 
	C818.746033,577.294006 822.906006,575.993103 826.203247,574.021851 
	C825.205444,577.032104 824.974182,579.636719 823.635437,581.400818 
	C820.038147,586.140930 816.098267,590.647644 811.968689,594.933167 
	C811.197083,595.733887 808.912109,595.076416 807.053040,595.072021 
	C806.780518,595.052063 806.771301,595.150818 806.771301,595.150818 
z"/>
<path fill="#DFE8F5" opacity="1.000000" stroke="none" 
	d="
M822.581787,589.867859 
	C825.279419,583.017517 828.665710,580.054626 835.225098,579.061462 
	C829.060913,584.873718 824.006165,590.763916 823.876648,599.295959 
	C823.407898,599.268738 822.939148,599.241455 822.470398,599.214233 
	C822.470398,596.227295 822.470398,593.240295 822.581787,589.867859 
z"/>
<path fill="#DFE8F5" opacity="1.000000" stroke="none" 
	d="
M854.808594,587.472900 
	C854.770142,597.112366 849.230591,603.679077 841.132019,603.787231 
	C848.082092,598.643799 852.571777,592.231384 853.315735,582.488037 
	C854.016541,584.705200 854.389893,585.886414 854.808594,587.472900 
z"/>
<path fill="#E2EBF6" opacity="1.000000" stroke="none" 
	d="
M842.073486,598.426147 
	C837.548889,600.023682 835.560913,598.032898 835.933472,592.794678 
	C836.104126,590.394958 835.962463,587.972961 835.962463,585.477905 
	C839.641235,584.870361 840.460266,586.117798 840.406982,591.347229 
	C840.383728,593.626953 841.543213,595.918823 842.073486,598.426147 
z"/>
<path fill="#DBE5F3" opacity="1.000000" stroke="none" 
	d="
M816.313110,529.934509 
	C819.400330,528.180725 822.612427,526.815002 825.987244,525.380066 
	C826.878418,529.976135 822.810425,531.639282 816.313110,529.934509 
z"/>
<path fill="#DFE8F5" opacity="1.000000" stroke="none" 
	d="
M825.637085,523.681763 
	C822.845337,524.627930 820.291687,525.376526 817.684387,525.765686 
	C816.864624,525.888123 815.900757,525.045776 815.002869,524.644958 
	C815.688721,523.915588 816.513123,522.473328 817.037598,522.575195 
	C819.964294,523.143677 823.446960,517.863647 825.637085,523.681763 
z"/>
<path fill="#DBE5F3" opacity="1.000000" stroke="none" 
	d="
M875.715210,509.716644 
	C878.075317,504.664764 877.725281,503.712708 872.836609,501.909546 
	C874.311951,501.390900 875.875122,500.317871 877.234192,500.533203 
	C878.276428,500.698303 880.018921,502.833557 879.781921,503.492188 
	C879.051697,505.521088 877.521179,507.262024 876.041016,509.418335 
	C875.780396,509.721832 875.715210,509.716644 875.715210,509.716644 
z"/>
<path fill="#DBE5F3" opacity="1.000000" stroke="none" 
	d="
M875.795044,509.692627 
	C875.554565,510.253815 875.299438,510.844269 875.044373,511.434692 
	C875.294189,511.507111 875.544067,511.579498 875.793884,511.651886 
	C875.918579,511.107819 876.043335,510.563751 875.941650,509.868164 
	C875.715210,509.716644 875.780396,509.721832 875.795044,509.692627 
z"/>
<path fill="#E2EBF6" opacity="1.000000" stroke="none" 
	d="
M870.059387,524.063843 
	C870.187927,523.715637 870.426758,523.487061 870.665649,523.258484 
	C870.699524,523.515564 870.733337,523.772583 870.579712,524.225220 
	C870.392212,524.420837 870.169678,524.183472 870.059387,524.063843 
z"/>
<path fill="#E6EDF7" opacity="1.000000" stroke="none" 
	d="
M806.743896,595.018677 
	C806.707336,594.985229 806.985596,594.976440 806.985596,594.976440 
	C806.985596,594.976440 806.697937,595.012268 806.734619,595.081543 
	C806.771301,595.150818 806.780518,595.052063 806.743896,595.018677 
z"/>
<path fill="#ECF2F9" opacity="1.000000" stroke="none" 
	d="
M677.444458,623.498413 
	C676.674988,621.617004 676.124329,619.696655 676.109314,617.772156 
	C675.992798,602.826416 675.979614,587.879883 675.865234,572.469849 
	C679.379089,567.333130 682.968628,562.665100 686.543213,557.985657 
	C689.218018,554.484192 693.430359,551.920288 692.439514,546.274353 
	C692.243530,545.157349 695.378540,542.322754 696.987488,542.314758 
	C698.909973,542.305176 701.051270,544.264954 702.675659,545.814270 
	C703.384827,546.490662 703.044739,548.267090 703.153198,549.282043 
	C705.058594,549.375122 706.768005,549.458557 708.872742,549.612000 
	C709.268066,549.681946 709.053223,549.589478 709.053223,549.589478 
	C710.840576,552.342468 713.283081,553.267944 716.605713,553.046936 
	C721.419250,552.726868 726.267944,552.860413 731.099609,552.934387 
	C732.566528,552.956787 734.026611,553.421448 735.489868,553.683533 
	C735.518372,554.222961 735.546875,554.762329 735.575378,555.301758 
	C734.344971,555.630859 733.122681,556.204468 731.882751,556.245483 
	C727.220032,556.399597 722.520020,556.069763 717.896667,556.538757 
	C714.996033,556.833130 711.974121,557.809265 709.419678,559.224792 
	C704.937317,561.708862 701.274902,559.100159 700.642456,552.586426 
	C696.086304,551.907288 693.899963,555.163818 690.929993,557.779236 
	C680.868469,566.639709 677.464539,577.330200 678.977661,590.562805 
	C680.031738,599.780029 679.323303,609.207214 679.234070,618.538940 
	C679.218323,620.182556 678.373352,621.818237 677.444458,623.498413 
z"/>
<path fill="#F3F7FB" opacity="1.000000" stroke="none" 
	d="
M657.938477,516.643066 
	C651.227722,525.764526 655.104431,535.973633 654.440186,545.537903 
	C654.127502,550.040955 653.697510,554.073669 650.369080,557.288818 
	C646.613708,560.916443 645.810120,565.286926 645.907043,570.386536 
	C646.213440,586.514404 646.152710,602.650757 646.043579,618.782532 
	C646.033691,620.245117 644.655579,621.698425 643.477905,623.032471 
	C642.948059,603.458801 642.785400,584.008362 642.864746,564.558960 
	C642.872559,562.641235 643.918152,560.316833 645.244263,558.889282 
	C649.948792,553.825134 651.741516,548.136169 651.080322,541.234741 
	C650.559448,535.798462 651.085144,530.268677 650.914551,524.787598 
	C650.868958,523.323242 650.339233,521.564026 649.399414,520.497437 
	C646.920227,517.683899 646.156250,514.796265 649.094482,512.215149 
	C652.074036,509.597839 655.191406,510.149384 657.851562,513.956299 
	C658.020874,514.702209 657.997803,514.881775 657.974731,515.061340 
	C657.947998,515.483582 657.921265,515.905884 657.938477,516.643066 
z"/>
<path fill="#DBE5F3" opacity="1.000000" stroke="none" 
	d="
M689.700806,535.455322 
	C691.740723,534.537476 693.519958,533.383972 695.317444,533.354736 
	C707.275757,533.160034 719.238098,533.164856 731.198608,533.223389 
	C732.763489,533.231018 734.325073,533.915527 735.888245,534.286499 
	C735.861633,534.863647 735.835083,535.440796 735.808533,536.017944 
	C734.054993,536.302246 732.303284,536.818970 730.547546,536.833008 
	C719.417847,536.922180 708.287170,536.890686 697.156860,536.919312 
	C692.098572,536.932312 685.223694,543.291931 685.064392,548.289062 
	C684.942444,552.116455 683.230408,554.340088 679.376282,554.292053 
	C676.018738,554.250244 674.157043,552.116455 674.125305,548.860779 
	C674.089905,545.224854 676.478027,543.325317 679.843628,543.282654 
	C685.131897,543.215515 686.053711,537.982910 689.700806,535.455322 
z"/>
<path fill="#ECF2F9" opacity="1.000000" stroke="none" 
	d="
M719.000000,501.034119 
	C712.344116,501.026031 706.188049,500.990387 700.032349,501.022247 
	C696.642822,501.039764 693.349487,500.560333 690.398254,503.585205 
	C689.444031,504.563232 684.848938,503.751648 683.752380,502.337372 
	C682.633850,500.894775 682.880371,496.809570 684.167725,495.530884 
	C685.457764,494.249542 689.814636,493.941620 690.984375,495.087799 
	C693.522156,497.574371 696.137451,497.596436 699.096802,497.604584 
	C713.405029,497.644104 727.713379,497.689911 742.021362,497.780334 
	C743.713684,497.791016 745.404114,498.088928 747.093018,499.280121 
	C737.999695,501.954681 728.683350,500.618042 719.000000,501.034119 
z"/>
<path fill="#DFE8F5" opacity="1.000000" stroke="none" 
	d="
M709.528687,549.473999 
	C709.053223,549.589478 709.268066,549.681946 709.288086,549.740723 
	C708.779297,548.255371 707.967468,546.745483 707.776184,545.160583 
	C707.261780,540.899475 712.245605,537.033081 715.085388,539.742249 
	C719.494080,543.948242 724.380798,542.745972 729.296814,543.091309 
	C731.389648,543.238342 733.434143,544.072937 735.500610,544.595032 
	C733.393982,545.290405 731.332642,546.319702 729.171448,546.612793 
	C724.435669,547.254944 719.322693,545.474854 715.141174,549.593689 
	C714.311279,550.411194 711.761047,549.482178 709.528687,549.473999 
z"/>
<path fill="#ECF2F9" opacity="1.000000" stroke="none" 
	d="
M734.519897,477.988831 
	C735.000244,478.213135 735.015747,478.381836 735.151367,478.774384 
	C734.209778,479.708557 733.217407,480.850861 732.071228,481.034821 
	C729.996277,481.367767 727.829468,481.114471 725.701233,481.131866 
	C720.450073,481.174805 714.917236,480.122681 710.441345,484.871643 
	C710.017822,484.847443 709.902893,484.812500 709.876831,484.829773 
	C708.054749,483.247406 705.393799,481.926971 704.756653,479.953217 
	C704.306519,478.558929 706.234253,475.187622 707.761597,474.677063 
	C709.581055,474.068848 712.123840,475.521423 714.321777,476.185211 
	C715.782349,476.626282 717.169373,477.652740 718.621155,477.718842 
	C723.758362,477.952637 728.909302,477.885986 734.519897,477.988831 
z"/>
<path fill="#2362B8" opacity="1.000000" stroke="none" 
	d="
M658.309937,515.151611 
	C657.997803,514.881775 658.020874,514.702209 658.075378,514.252869 
	C658.276855,513.985962 658.446899,513.988892 658.871338,514.013428 
	C658.965515,514.437317 658.805359,514.839539 658.309937,515.151611 
z"/>
<path fill="#F8FAFD" opacity="1.000000" stroke="none" 
	d="
M579.888733,542.885864 
	C580.652649,550.502441 583.765259,556.041931 590.971802,558.398865 
	C597.734253,560.610474 603.453369,557.535767 610.100952,552.744629 
	C609.683838,559.560120 609.367859,564.723633 609.033691,570.184509 
	C607.276062,570.477234 605.709656,570.452026 604.416687,571.034241 
	C603.131653,571.612793 602.106506,572.784424 600.994812,573.728149 
	C599.683472,574.841309 598.379150,576.921814 597.112488,576.891296 
	C595.444641,576.851196 592.958313,575.539612 592.333801,574.113525 
	C590.535522,570.007202 588.340271,569.850708 585.645752,572.759888 
	C583.210266,575.389404 581.152832,574.403687 578.597961,573.075195 
	C575.712769,571.574890 576.308105,569.715393 576.982971,567.261780 
	C577.895386,563.944031 576.260864,562.057129 572.825134,562.805054 
	C569.820129,563.459290 567.664246,562.589539 566.974609,559.836792 
	C566.594482,558.319824 567.245422,556.164673 568.161804,554.780823 
	C570.153992,551.772461 569.667847,548.907593 566.167969,548.136169 
	C562.750000,547.382690 562.195374,545.280151 561.931091,542.385681 
	C561.656860,539.381653 563.530396,538.874146 565.724121,538.178528 
	C569.121216,537.101196 570.001282,533.509521 567.383057,531.008301 
	C565.499573,529.208984 564.276978,527.863037 566.120300,525.168701 
	C567.858704,522.627747 569.586792,522.147522 572.402222,523.221619 
	C575.651184,524.461121 577.289551,522.673706 577.331848,519.227051 
	C577.353149,517.493713 578.290161,515.037781 579.610107,514.258240 
	C580.959290,513.461487 583.649597,513.704773 585.105957,514.575134 
	C588.201965,516.425354 590.104553,515.847229 591.912659,512.492737 
	C592.723999,510.987549 594.867065,509.358246 596.423706,509.340332 
	C597.895996,509.323364 599.332092,511.435974 600.894592,512.440002 
	C602.370667,513.388489 603.924805,514.601196 605.562622,514.821716 
	C608.000244,515.150024 609.230957,515.862671 608.990540,518.502686 
	C608.649170,522.251709 608.468994,526.015381 608.165527,530.594177 
	C600.382141,526.773315 593.189514,523.755249 585.977051,529.394287 
	C581.789734,532.667969 579.783691,537.108215 579.888733,542.885864 
z"/>
<path fill="#FAFCFD" opacity="1.000000" stroke="none" 
	d="
M562.688904,596.059937 
	C560.416748,596.147705 558.604919,596.236328 556.238647,596.352112 
	C556.238647,588.694336 556.238647,581.176941 556.238647,573.223694 
	C559.982788,573.223694 563.863037,573.223694 567.720032,573.223694 
	C569.739807,575.921204 566.655457,581.783386 572.468018,581.635071 
	C574.749817,581.576904 576.969971,579.103882 580.002808,577.251282 
	C580.863220,577.722473 582.646301,578.960266 584.613953,579.719543 
	C588.178833,581.095276 589.178284,582.828186 587.973022,586.899048 
	C587.313110,589.127625 589.579712,592.222778 590.626770,595.213074 
	C593.540283,593.831421 595.451660,592.924927 597.808899,591.807068 
	C598.978027,593.697998 599.908081,595.639099 601.235596,597.253357 
	C603.594666,600.122070 603.193848,602.338196 600.085999,604.155273 
	C597.454651,605.693787 597.424194,608.003723 598.787476,610.114136 
	C599.559814,611.309631 601.288940,612.337952 602.726868,612.568054 
	C606.995300,613.250916 607.791260,615.496216 605.811523,622.926331 
	C598.948608,622.926331 592.005615,622.926331 584.704285,622.926331 
	C583.931763,608.831787 579.176208,597.829346 562.688904,596.059937 
z"/>
<path fill="#F3F7FB" opacity="1.000000" stroke="none" 
	d="
M580.670837,505.920898 
	C579.262207,506.411316 577.464172,507.159760 577.013245,506.669403 
	C575.435547,504.953796 574.163940,503.576263 571.580872,504.910614 
	C571.170288,505.122711 569.896301,503.875732 569.172607,503.152130 
	C568.924255,502.903809 569.208069,501.768097 569.130066,501.755188 
	C563.476196,500.819885 566.639893,494.871429 563.787964,492.313171 
	C563.238159,491.819977 562.981934,490.461487 563.231079,489.716339 
	C563.984497,487.462524 565.052917,485.314056 566.267151,482.502686 
	C567.432983,481.490509 569.300720,479.869049 571.234619,478.190125 
	C573.011963,477.575684 575.062927,476.712067 577.198303,476.200195 
	C578.127808,475.977386 579.235657,476.450470 580.252930,476.655090 
	C581.418945,476.889618 582.632019,477.034637 583.719849,477.476593 
	C585.142273,478.054504 586.534790,478.779572 587.796997,479.649139 
	C588.499451,480.133026 588.857483,481.602234 589.462891,481.659882 
	C592.545898,481.953583 593.036621,483.369598 592.061462,486.058197 
	C591.800110,486.778717 592.212769,488.196655 592.813232,488.693420 
	C594.760925,490.304779 595.235657,491.583893 593.131531,493.534546 
	C592.490356,494.128998 592.938049,495.813599 592.710388,496.964020 
	C592.510376,497.975494 592.314880,499.164978 591.673706,499.875458 
	C590.318604,501.377045 588.673584,502.617004 587.684814,504.737488 
	C585.422913,505.028625 583.161072,505.319763 580.670837,505.920898 
M571.713074,486.335083 
	C569.232849,491.949158 570.292419,496.486328 574.629272,498.822510 
	C578.459778,500.885925 583.301636,499.815002 585.792664,496.353394 
	C588.219116,492.981506 587.709656,487.806183 584.671570,484.964539 
	C581.215637,481.732086 576.631409,482.008942 571.713074,486.335083 
z"/>
<path fill="#2362B8" opacity="1.000000" stroke="none" 
	d="
M663.836304,568.522461 
	C663.836304,569.017151 663.428589,569.015747 663.224854,569.009155 
	C663.064087,566.959595 663.107117,564.916504 663.561035,562.699341 
	C663.926758,564.359375 663.881531,566.193604 663.836304,568.522461 
z"/>
<path fill="#074FAF" opacity="1.000000" stroke="none" 
	d="
M459.518555,496.738281 
	C454.912354,499.005554 451.079346,498.484894 448.096497,494.693939 
	C445.575775,491.490356 445.571167,487.933044 447.716522,484.523224 
	C449.952759,480.969086 453.387939,480.107269 457.259003,481.065460 
	C463.897278,482.708557 465.208313,490.706116 459.518555,496.738281 
z"/>
<path fill="#074FAF" opacity="1.000000" stroke="none" 
	d="
M451.738892,547.807739 
	C446.635712,543.781067 445.780975,540.132080 448.698853,536.296875 
	C451.189789,533.022888 455.403015,532.272644 458.812042,534.601685 
	C461.928009,536.730530 463.024200,539.841919 461.742828,543.273193 
	C460.108154,547.650757 456.603088,549.015686 451.738892,547.807739 
z"/>
<path fill="#1156B3" opacity="1.000000" stroke="none" 
	d="
M450.199066,512.864502 
	C449.491730,515.426147 449.066956,518.051453 447.561646,519.674866 
	C446.851166,520.441101 443.415009,519.909058 442.396362,518.839294 
	C441.211182,517.594727 440.565430,514.914185 441.021271,513.215271 
	C442.068604,509.312317 446.067871,509.137573 450.199066,512.864502 
z"/>
<path fill="#1156B3" opacity="1.000000" stroke="none" 
	d="
M476.227417,550.801697 
	C472.952026,549.272522 471.689392,546.985474 474.092621,544.471191 
	C475.057343,543.461853 477.638367,543.422974 479.247986,543.843872 
	C480.067078,544.058105 481.161865,546.740906 480.726624,547.478882 
	C479.879150,548.915710 478.041931,549.768860 476.227417,550.801697 
z"/>
<path fill="#1156B3" opacity="1.000000" stroke="none" 
	d="
M485.251465,494.084290 
	C484.059326,492.474365 482.787292,490.945740 482.689178,489.345154 
	C482.647827,488.670319 485.091766,487.263123 486.387878,487.284515 
	C487.294647,487.299500 489.107727,489.522675 488.874695,490.146545 
	C488.306976,491.666473 486.784241,492.829681 485.251465,494.084290 
z"/>
<path fill="#074FAF" opacity="1.000000" stroke="none" 
	d="
M571.955322,486.026428 
	C576.631409,482.008942 581.215637,481.732086 584.671570,484.964539 
	C587.709656,487.806183 588.219116,492.981506 585.792664,496.353394 
	C583.301636,499.815002 578.459778,500.885925 574.629272,498.822510 
	C570.292419,496.486328 569.232849,491.949158 571.955322,486.026428 
z"/>
</svg>